<svg width="23" height="20" viewBox="0 0 23 20" fill="none" xmlns="http://www.w3.org/2000/svg">
<path d="M21.0399 1.02469C21.0399 1.02469 23.1674 0.20226 22.9894 2.19942C22.9308 3.02185 22.3991 5.90061 21.9851 9.01388L20.5668 18.237C20.5668 18.237 20.4485 19.5881 19.3845 19.8232C18.321 20.0577 16.7253 19.0008 16.4296 18.7657C16.193 18.5893 11.9972 15.9456 10.5198 14.6536C10.1058 14.3007 9.63264 13.5961 10.5789 12.7737L16.7839 6.89892C17.4931 6.19429 18.2022 4.54944 15.2473 6.54661L6.97289 12.1272C6.97289 12.1272 6.02717 12.7151 4.25455 12.1863L0.412512 11.011C0.412512 11.011 -1.0058 10.13 1.41738 9.24894C7.32775 6.48798 14.5973 3.66839 21.0388 1.02469H21.0399Z" fill="white"/>
</svg>
